<?xml version="1.0" encoding="UTF-8" standalone="no"?><!DOCTYPE svg PUBLIC "-//W3C//DTD SVG 1.1//EN" "http://www.w3.org/Graphics/SVG/1.1/DTD/svg11.dtd"><svg width="100%" height="100%" viewBox="0 0 500 500" version="1.1" xmlns="http://www.w3.org/2000/svg" xmlns:xlink="http://www.w3.org/1999/xlink" xml:space="preserve" style="fill-rule:evenodd;clip-rule:evenodd;stroke-linejoin:round;stroke-miterlimit:1.41421;"><rect id="PDLogo" x="0" y="0" width="500" height="500" style="fill:none;"/><path d="M383.458,214.043c-34.646,0.496 -76.529,17.921 -81.827,67.867c-27.814,-1.031 -53.716,-6.026 -83.299,-8.229c2.711,9.8 27.002,49.455 26.639,115.314c-50.776,41.129 -107.854,-23.387 -115.185,-39.348c-34.869,-75.907 -38.299,-119.113 -34.597,-152.807c3.689,-33.569 74.249,-45.247 102.065,-42.824c0.442,-9.641 -0.626,-29.579 -0.403,-40.377c-24.052,-5.609 -68.775,-12.884 -86.417,-24.681c30.907,-18.069 95.679,-8.538 145.128,-9.179c33.996,-0.441 62.476,-11.016 165.132,-14.249c0.558,-0.016 -11.682,35.433 -20.749,65.222c-10.652,41.621 -16.274,73.056 -16.487,83.291Zm-30.986,-99.799c-0.438,4.33 -1.039,12.563 -3.731,25.655c-8.496,1.878 -89.001,10.865 -98.779,10.463c0.024,-1.001 0.942,-23.252 0.908,-25.99c7.56,0.819 77.578,-5.871 101.602,-10.128Z" style="fill:#fff;"/><path d="M352.472,114.244c-0.438,4.33 -1.039,12.563 -3.731,25.655c-8.496,1.878 -89.001,10.865 -98.779,10.463c0.024,-1.001 0.942,-23.252 0.908,-25.99c7.56,0.819 77.578,-5.871 101.602,-10.128Z" style="fill:#fff;"/><path d="M101.447,94.357c14.992,10.938 80.528,24.849 86.821,25.602c-0.653,6.997 -0.715,24.278 -0.69,24.398c-31.495,-1.175 -71.938,-16.56 -84.669,-19.719c-0.124,-2.551 -1.341,-26.941 -1.462,-30.281Z" style="fill:#fff;"/><path d="M361.606,104.323c-22.641,6.902 -95.214,11.43 -120.34,13.758c0.431,7.934 1.88,24.801 -0.589,33.492c-0.419,1.474 -2.354,2.865 -4.783,8.52c-0.023,3.781 6.856,8.076 9.713,6.464c8.172,-4.608 16.497,-10.26 34.616,-11.438c11.597,-0.755 59.132,-6.484 74.881,-7.659c0.661,-0.05 4.525,-31.908 6.502,-43.137Zm-9.134,9.921c-0.438,4.33 -1.039,12.563 -3.731,25.655c-8.496,1.878 -89.001,10.865 -98.779,10.463c0.024,-1.001 0.942,-23.252 0.908,-25.99c7.56,0.819 77.578,-5.871 101.602,-10.128Z"/><path d="M383.458,214.043c-34.646,0.496 -76.529,17.921 -81.827,67.867c-27.814,-1.031 -53.716,-6.026 -83.299,-8.229c2.711,9.8 27.002,49.455 26.639,115.314c-50.776,41.129 -107.854,-23.387 -115.185,-39.348c-34.869,-75.907 -38.299,-119.113 -34.597,-152.807c3.689,-33.569 74.249,-45.247 102.065,-42.824c0.442,-9.641 -0.626,-29.579 -0.403,-40.377c-24.052,-5.609 -68.775,-12.884 -86.417,-24.681c30.907,-18.069 95.679,-8.538 145.128,-9.179c33.996,-0.441 62.476,-11.016 165.132,-14.249c0.558,-0.016 -11.682,35.433 -20.749,65.222c-10.652,41.621 -16.274,73.056 -16.487,83.291Zm-282.011,-119.686c14.992,10.938 80.528,24.849 86.821,25.602c-0.653,6.997 -0.715,24.278 -0.69,24.398c-31.495,-1.175 -71.938,-16.56 -84.669,-19.719c-0.124,-2.551 -1.341,-26.941 -1.462,-30.281Zm376.883,-63.714c0,0 -20.33,7.712 -36.227,9.475c0.997,-2.661 3.667,-9.378 2.153,-11.624c-0.477,-0.706 -4.509,-1.199 -5.193,-0.639c-6.514,5.344 -6.214,14.169 -6.451,14.246c-37.089,12.118 -63.578,17.847 -133.338,16.966c-124.593,-1.574 -222.746,-27.653 -264.764,-52.001c-5.401,-3.129 -12.621,7.731 -12.651,7.932c-1.186,1.958 2.94,6.97 20.451,13.66c27.969,10.69 22.678,12.566 23.466,29.294c1.178,25.034 6.998,163.289 41.989,274.343c5.63,17.872 34.181,110.759 86.28,161.205c13.945,-27.016 28.626,-73.179 53.46,-87.28c0.029,4.091 0.527,15.119 1.987,18.839c2.675,6.815 6.262,2.871 9.713,-3.196c-0.993,-12.006 -3.282,-9.476 -3.944,-25.451c0.167,-0.537 33.415,-26.989 43.461,-27.981c3.311,0.551 1.587,-18.011 -1.106,-19.17c-5.627,-2.423 -30.279,22.182 -43.792,31.275c-7.68,-35.608 -2.537,-77.108 -1.645,-84.083c57.8,1.578 155.963,1.198 162.221,5.544c-0.299,-18.006 0.882,-16.857 -0.221,-32.941c-14.129,9.805 -69.32,16.195 -101.55,13.881c-0.662,-16.746 11.479,-47.374 71.747,-55.748c7.844,-1.088 60.486,-1.431 71.416,-0.55c3.504,0.283 6.535,-22.106 3.972,-22.034c-11.81,0.33 -35.873,5.288 -45.808,5.288c-20.419,-57.621 7.87,-126.101 17.331,-146.713c0.438,-0.956 29.582,-15.791 43.49,-15.791c0.882,-8.372 3.553,-16.746 3.553,-16.746Z" style="fill-rule:nonzero;"/></svg>